o Mesh1_Group1_Model
usemtl FrontColor
v -0.0008996348103512924 0.453752579304822 0.8382464342099725
v 0.8154239011809548 0.4885711131082248 0.26173783152773966
v -0.0008996595669633904 1.005668334760278 0.004394522269159984
v -0.4809843102719841 -0.40142107034496943 0.6427977056507589
v -0.0008996348103512924 0.453752579304822 0.8382464342099725
v 0.8154239011809548 0.4885711131082248 0.26173783152773966
v -0.4809843102719841 -0.40142107034496943 0.6427977056507589
v 0.8154239011809548 0.4885711131082248 0.26173783152773966
v 0.8398560057919073 -0.3450632762438535 -0.2900327341005883
v -0.4809843102719841 -0.40142107034496943 0.6427977056507589
v 0.8398560057919073 -0.3450632762438535 -0.2900327341005883
v 0.038632458804622044 -0.8951002209469487 -0.054539758455050935
v 0.038632458804622044 -0.8951002209469487 -0.054539758455050935
v -0.4809843102719841 -0.40142107034496943 0.6427977056507589
v -0.8021250783462363 0.4556059008000782 0.23991863347922696
v 0.038632458804622044 -0.8951002209469487 -0.054539758455050935
v -0.8021250783462363 0.4556059008000782 0.23991863347922696
v -0.4809843347555453 0.4916579732504993 -0.706495729023776
v 0.038632458804622044 -0.8951002209469487 -0.054539758455050935
v -0.4809843347555453 0.4916579732504993 -0.706495729023776
v 0.038632458804622044 -0.34318531019822346 -0.8883922294950518
v 0.038632458804622044 -0.8951002209469487 -0.054539758455050935
v -0.4809843102719841 -0.40142107034496943 0.6427977056507589
v -0.7776929737352837 -0.37802848855200016 -0.311851932149101
v -0.4809843102719841 -0.40142107034496943 0.6427977056507589
v 0.038632458804622044 -0.8951002209469487 -0.054539758455050935
v 0.5187221550113561 -0.3810473219818596 0.6562827955197357
v 0.5187221550113561 -0.3810473219818596 0.6562827955197357
v 0.038632458804622044 -0.8951002209469487 -0.054539758455050935
v 0.8398560057919073 -0.3450632762438535 -0.2900327341005883
v 0.8398560057919073 -0.3450632762438535 -0.2900327341005883
v 0.038632458804622044 -0.8951002209469487 -0.054539758455050935
v 0.038632458804622044 -0.34318531019822346 -0.8883922294950518
v 0.038632458804622044 -0.8951002209469487 -0.054539758455050935
v -0.7776929737352837 -0.37802848855200016 -0.311851932149101
v 0.038632458804622044 -0.34318531019822346 -0.8883922294950518
v -0.4809843347555453 0.4916579732504993 -0.706495729023776
v 0.038632458804622044 -0.34318531019822346 -0.8883922294950518
v -0.7776929737352837 -0.37802848855200016 -0.311851932149101
v 0.5187221305277949 0.5120317216136092 -0.6930106391547993
v 0.038632458804622044 -0.34318531019822346 -0.8883922294950518
v -0.4809843347555453 0.4916579732504993 -0.706495729023776
v 0.8398560057919073 -0.3450632762438535 -0.2900327341005883
v 0.038632458804622044 -0.34318531019822346 -0.8883922294950518
v 0.5187221305277949 0.5120317216136092 -0.6930106391547993
v 0.8398560057919073 -0.3450632762438535 -0.2900327341005883
v 0.5187221305277949 0.5120317216136092 -0.6930106391547993
v 0.8154239011809548 0.4885711131082248 0.26173783152773966
v 0.5187221305277949 0.5120317216136092 -0.6930106391547993
v -0.0008996595669633904 1.005668334760278 0.004394522269159984
v 0.8154239011809548 0.4885711131082248 0.26173783152773966
v -0.4809843347555453 0.4916579732504993 -0.706495729023776
v -0.0008996595669633904 1.005668334760278 0.004394522269159984
v 0.5187221305277949 0.5120317216136092 -0.6930106391547993
v -0.4809843347555453 0.4916579732504993 -0.706495729023776
v -0.8021250783462363 0.4556059008000782 0.23991863347922696
v -0.0008996595669633904 1.005668334760278 0.004394522269159984
v -0.4809843347555453 0.4916579732504993 -0.706495729023776
v -0.7776929737352837 -0.37802848855200016 -0.311851932149101
v -0.8021250783462363 0.4556059008000782 0.23991863347922696
v -0.7776929737352837 -0.37802848855200016 -0.311851932149101
v -0.4809843102719841 -0.40142107034496943 0.6427977056507589
v -0.8021250783462363 0.4556059008000782 0.23991863347922696
v -0.4809843102719841 -0.40142107034496943 0.6427977056507589
v -0.0008996348103512924 0.453752579304822 0.8382464342099725
v -0.8021250783462363 0.4556059008000782 0.23991863347922696
v -0.0008996348103512924 0.453752579304822 0.8382464342099725
v -0.4809843102719841 -0.40142107034496943 0.6427977056507589
v 0.5187221550113561 -0.3810473219818596 0.6562827955197357
v 0.5187221550113561 -0.3810473219818596 0.6562827955197357
v 0.8154239011809548 0.4885711131082248 0.26173783152773966
v -0.0008996348103512924 0.453752579304822 0.8382464342099725
v 0.5187221550113561 -0.3810473219818596 0.6562827955197357
v 0.8398560057919073 -0.3450632762438535 -0.2900327341005883
v 0.8154239011809548 0.4885711131082248 0.26173783152773966
v -0.0008996595669633904 1.005668334760278 0.004394522269159984
v -0.8021250783462363 0.4556059008000782 0.23991863347922696
v -0.0008996348103512924 0.453752579304822 0.8382464342099725
vt 12.166000366210938 -7.024059772491455
vt 31.85110092163086 -41.11949920654297
vt 51.53609848022461 -7.024059772491455
vt 10.348999977111816 31.85110092163086
vt 33.49020004272461 63.70209884643555
vt 70.93340301513672 51.53609848022461
vt 10.348999977111816 31.85110092163086
vt 70.93340301513672 51.53609848022461
vt 70.93340301513672 12.166000366210938
vt 10.348999977111816 31.85110092163086
vt 70.93340301513672 12.166000366210938
vt 33.49020004272461 0
vt -12.166000366210938 -16.745100021362305
vt 0 20.69809913635254
vt -31.85110092163086 43.83919906616211
vt -12.166000366210938 -16.745100021362305
vt -31.85110092163086 43.83919906616211
vt -63.70209884643555 20.69809913635254
vt -12.166000366210938 -16.745100021362305
vt -63.70209884643555 20.69809913635254
vt -51.53609848022461 -16.745100021362305
vt 13.919400215148926 -17.969900131225586
vt 8.602680206298828 21.039499282836914
vt -22.5221004486084 -3.0696299076080322
vt 12.166000366210938 29.7544002532959
vt 31.85110092163086 -4.3411102294921875
vt 51.53609848022461 29.7544002532959
vt 36.44150161743164 47.045799255371094
vt 31.124799728393555 8.03637981414795
vt 67.56629943847656 22.93670082092285
vt 31.85110092163086 63.84989929199219
vt 12.166000366210938 29.7544002532959
vt 51.53609848022461 29.7544002532959
vt -12.166000366210938 -29.7544002532959
vt -31.85110092163086 4.3411102294921875
vt -51.53609848022461 -29.7544002532959
vt -53.64690017700195 47.045799255371094
vt -58.963600158691406 8.03637981414795
vt -22.5221004486084 22.93670082092285
vt -51.53609848022461 52.48469924926758
vt -31.85110092163086 18.38920021057129
vt -12.166000366210938 52.48469924926758
vt -22.5221004486084 48.942901611328125
vt 13.919400215148926 34.042701721191406
vt 8.602680206298828 73.0521011352539
vt 7.024059772491455 12.166000366210938
vt 41.11949920654297 31.85110092163086
vt 7.024059772491455 51.53609848022461
vt 8.602680206298828 -21.039499282836914
vt 13.919400215148926 17.969900131225586
vt -22.5221004486084 3.0696299076080322
vt -12.166000366210938 7.024059772491455
vt -31.85110092163086 41.11949920654297
vt -51.53609848022461 7.024059772491455
vt -53.64690017700195 4.966760158538818
vt -22.5221004486084 29.075899124145508
vt -58.963600158691406 43.976200103759766
vt -63.84989929199219 31.85110092163086
vt -29.7544002532959 12.166000366210938
vt -29.7544002532959 51.53609848022461
vt -29.7544002532959 12.166000366210938
vt 4.3411102294921875 31.85110092163086
vt -29.7544002532959 51.53609848022461
vt 8.602680206298828 30.972999572753906
vt 13.919400215148926 69.98249816894531
vt -22.5221004486084 55.08219909667969
vt 31.85110092163086 63.84989929199219
vt 12.166000366210938 29.7544002532959
vt 51.53609848022461 29.7544002532959
vt 36.44150161743164 4.966760158538818
vt 67.56629943847656 29.075899124145508
vt 31.124799728393555 43.976200103759766
vt 18.38920021057129 31.85110092163086
vt 52.48469924926758 12.166000366210938
vt 52.48469924926758 51.53609848022461
vt -51.53609848022461 52.48469924926758
vt -31.85110092163086 18.38920021057129
vt -12.166000366210938 52.48469924926758
vn 0.33386295616891776 0.7860388080335426 0.5202677375768738
vn 0.33386295616891776 0.7860388080335426 0.5202677375768738
vn 0.33386295616891776 0.7860388080335426 0.5202677375768738
vn -0.5255296488477372 0.45881068265574293 -0.7164574974574174
vn -0.5255296488477372 0.45881068265574293 -0.7164574974574174
vn -0.5255296488477372 0.45881068265574293 -0.7164574974574174
vn -0.5255296488477372 0.45881068265574293 -0.7164574974574174
vn -0.5255296488477372 0.45881068265574293 -0.7164574974574174
vn -0.5255296488477372 0.45881068265574293 -0.7164574974574174
vn -0.5255296488477372 0.45881068265574293 -0.7164574974574174
vn -0.5255296488477372 0.45881068265574293 -0.7164574974574174
vn -0.5255296488477372 0.45881068265574293 -0.7164574974574174
vn -0.837580730110455 -0.4555631433119093 -0.30153066677107637
vn -0.837580730110455 -0.4555631433119093 -0.30153066677107637
vn -0.837580730110455 -0.4555631433119093 -0.30153066677107637
vn -0.837580730110455 -0.4555631433119093 -0.30153066677107637
vn -0.837580730110455 -0.4555631433119093 -0.30153066677107637
vn -0.837580730110455 -0.4555631433119093 -0.30153066677107637
vn -0.837580730110455 -0.4555631433119093 -0.30153066677107637
vn -0.837580730110455 -0.4555631433119093 -0.30153066677107637
vn -0.837580730110455 -0.4555631433119093 -0.30153066677107637
vn -0.5630394823992062 -0.8117325131339405 0.15516722714829653
vn -0.5630394823992062 -0.8117325131339405 0.15516722714829653
vn -0.5630394823992062 -0.8117325131339405 0.15516722714829653
vn 0.008717244655239953 -0.8130465880316247 0.5821333655922454
vn 0.008717244655239953 -0.8130465880316247 0.5821333655922454
vn 0.008717244655239953 -0.8130465880316247 0.5821333655922454
vn 0.5912180054848879 -0.7882462722640786 0.1706724472557163
vn 0.5912180054848879 -0.7882462722640786 0.1706724472557163
vn 0.5912180054848879 -0.7882462722640786 0.1706724472557163
vn 0.3795112190013048 -0.7715004345825519 -0.5106449981063923
vn 0.3795112190013048 -0.7715004345825519 -0.5106449981063923
vn 0.3795112190013048 -0.7715004345825519 -0.5106449981063923
vn -0.33386295616891776 -0.7860388080335426 -0.5202677375768738
vn -0.33386295616891776 -0.7860388080335426 -0.5202677375768738
vn -0.33386295616891776 -0.7860388080335426 -0.5202677375768738
vn -0.5630370387043651 -0.17447555964251504 -0.8078041669454613
vn -0.5630370387043651 -0.17447555964251504 -0.8078041669454613
vn -0.5630370387043651 -0.17447555964251504 -0.8078041669454613
vn 0.008720191731352727 0.21804798954290963 -0.9758990893081434
vn 0.008720191731352727 0.21804798954290963 -0.9758990893081434
vn 0.008720191731352727 0.21804798954290963 -0.9758990893081434
vn 0.5912521461367233 -0.1509514571115324 -0.7922339031401169
vn 0.5912521461367233 -0.1509514571115324 -0.7922339031401169
vn 0.5912521461367233 -0.1509514571115324 -0.7922339031401169
vn 0.9339043795918126 0.2159603003056368 -0.2849276372539719
vn 0.9339043795918126 0.2159603003056368 -0.2849276372539719
vn 0.9339043795918126 0.2159603003056368 -0.2849276372539719
vn 0.5630370387043651 0.8117606886253198 -0.15502863428917188
vn 0.5630370387043651 0.8117606886253198 -0.15502863428917188
vn 0.5630370387043651 0.8117606886253198 -0.15502863428917188
vn -0.008720191731352727 0.813121711169044 -0.5820283851168206
vn -0.008720191731352727 0.813121711169044 -0.5820283851168206
vn -0.008720191731352727 0.813121711169044 -0.5820283851168206
vn -0.5912521461367233 0.7882365860943372 -0.1705988980945163
vn -0.5912521461367233 0.7882365860943372 -0.1705988980945163
vn -0.5912521461367233 0.7882365860943372 -0.1705988980945163
vn -0.9339043795918126 0.17789486112771358 -0.3101226018264121
vn -0.9339043795918126 0.17789486112771358 -0.3101226018264121
vn -0.9339043795918126 0.17789486112771358 -0.3101226018264121
vn -0.9339043795918126 -0.2159603003056368 0.2849276372539719
vn -0.9339043795918126 -0.2159603003056368 0.2849276372539719
vn -0.9339043795918126 -0.2159603003056368 0.2849276372539719
vn -0.5912497024418821 0.15081287267051188 0.7922621200078
vn -0.5912497024418821 0.15081287267051188 0.7922621200078
vn -0.5912497024418821 0.15081287267051188 0.7922621200078
vn -0.008717244655239952 -0.21817397752831544 0.9758709572351743
vn -0.008717244655239952 -0.21817397752831544 0.9758709572351743
vn -0.008717244655239952 -0.21817397752831544 0.9758709572351743
vn 0.5630045272764835 0.1744102836192735 0.8078409219852803
vn 0.5630045272764835 0.1744102836192735 0.8078409219852803
vn 0.5630045272764835 0.1744102836192735 0.8078409219852803
vn 0.9339043795918126 -0.17789486112771358 0.3101226018264121
vn 0.9339043795918126 -0.17789486112771358 0.3101226018264121
vn 0.9339043795918126 -0.17789486112771358 0.3101226018264121
vn -0.3795112190013048 0.7715004345825519 0.5106449981063923
vn -0.3795112190013048 0.7715004345825519 0.5106449981063923
vn -0.3795112190013048 0.7715004345825519 0.5106449981063923
f 1/1/1 2/2/2 3/3/3
f 4/4/4 5/5/5 6/6/6
f 7/7/7 8/8/8 9/9/9
f 10/10/10 11/11/11 12/12/12
f 13/13/13 14/14/14 15/15/15
f 16/16/16 17/17/17 18/18/18
f 19/19/19 20/20/20 21/21/21
f 22/22/22 23/23/23 24/24/24
f 25/25/25 26/26/26 27/27/27
f 28/28/28 29/29/29 30/30/30
f 31/31/31 32/32/32 33/33/33
f 34/34/34 35/35/35 36/36/36
f 37/37/37 38/38/38 39/39/39
f 40/40/40 41/41/41 42/42/42
f 43/43/43 44/44/44 45/45/45
f 46/46/46 47/47/47 48/48/48
f 49/49/49 50/50/50 51/51/51
f 52/52/52 53/53/53 54/54/54
f 55/55/55 56/56/56 57/57/57
f 58/58/58 59/59/59 60/60/60
f 61/61/61 62/62/62 63/63/63
f 64/64/64 65/65/65 66/66/66
f 67/67/67 68/68/68 69/69/69
f 70/70/70 71/71/71 72/72/72
f 73/73/73 74/74/74 75/75/75
f 76/76/76 77/77/77 78/78/78
